<svg xmlns="http://www.w3.org/2000/svg" viewBox="0 0 256 144" shape-rendering="crispEdges" preserveAspectRatio="xMidYMid slice">
  <rect width="256" height="144" fill="#1A1A4A"/>
  <g fill="#FFFCFC">
    <rect x="20" y="30" width="2" height="2"/>
    <rect x="50" y="15" width="2" height="2"/>
    <rect x="80" y="40" width="2" height="2"/>
    <rect x="110" y="20" width="2" height="2"/>
    <rect x="140" y="50" width="2" height="2"/>
    <rect x="170" y="10" width="2" height="2"/>
    <rect x="220" y="35" width="2" height="2"/>
    <rect x="244" y="20" width="2" height="2"/>
    <rect x="30" y="60" width="2" height="2"/>
    <rect x="70" y="80" width="2" height="2"/>
    <rect x="120" y="85" width="2" height="2"/>
    <rect x="160" y="70" width="2" height="2"/>
    <rect x="220" y="85" width="2" height="2"/>
    <rect x="40" y="105" width="2" height="2"/>
    <rect x="100" y="120" width="2" height="2"/>
    <rect x="180" y="115" width="2" height="2"/>
    <rect x="240" y="130" width="2" height="2"/>
    <rect x="14" y="48" width="2" height="2"/>
    <rect x="190" y="100" width="2" height="2"/>
    <rect x="60" y="125" width="2" height="2"/>
  </g>
  <g fill="#FCE0A8">
    <rect x="200" y="50" width="4" height="2"/>
    <rect x="196" y="52" width="12" height="2"/>
    <rect x="194" y="54" width="14" height="8"/>
    <rect x="196" y="62" width="12" height="2"/>
    <rect x="200" y="64" width="4" height="2"/>
  </g>
  <g fill="#1A1A4A">
    <rect x="204" y="54" width="8" height="2"/>
    <rect x="206" y="56" width="8" height="6"/>
    <rect x="206" y="62" width="6" height="2"/>
  </g>
</svg>
