<svg xmlns="http://www.w3.org/2000/svg" viewBox="0 0 128 96" shape-rendering="crispEdges" preserveAspectRatio="xMidYMid slice">
  <rect width="128" height="96" fill="#A05A2C"/>
  <g fill="#7A3F18">
    <rect x="0" y="0" width="128" height="2"/>
    <rect x="0" y="24" width="128" height="2"/>
    <rect x="0" y="48" width="128" height="2"/>
    <rect x="0" y="72" width="128" height="2"/>
    <rect x="0" y="94" width="128" height="2"/>
    <rect x="32" y="2" width="2" height="22"/>
    <rect x="80" y="26" width="2" height="22"/>
    <rect x="48" y="50" width="2" height="22"/>
    <rect x="96" y="74" width="2" height="20"/>
  </g>
  <g fill="#8C4818">
    <rect x="10" y="8" width="40" height="1"/>
    <rect x="60" y="14" width="50" height="1"/>
    <rect x="20" y="32" width="40" height="1"/>
    <rect x="90" y="40" width="30" height="1"/>
    <rect x="10" y="56" width="30" height="1"/>
    <rect x="60" y="64" width="50" height="1"/>
    <rect x="20" y="80" width="60" height="1"/>
    <rect x="100" y="86" width="20" height="1"/>
  </g>
  <g fill="#C07840">
    <rect x="40" y="12" width="20" height="1"/>
    <rect x="70" y="36" width="20" height="1"/>
    <rect x="30" y="60" width="20" height="1"/>
    <rect x="80" y="84" width="20" height="1"/>
  </g>
</svg>
