<svg xmlns="http://www.w3.org/2000/svg" viewBox="0 0 64 32" shape-rendering="crispEdges" preserveAspectRatio="xMidYMid slice">
  <rect x="0" y="8" width="64" height="24" fill="#A05A2C"/>
  <g fill="#00A800">
    <rect x="0"  y="0" width="64" height="8"/>
  </g>
  <g fill="#007800">
    <rect x="0"  y="8" width="4"  height="2"/>
    <rect x="8"  y="8" width="2"  height="2"/>
    <rect x="14" y="8" width="4"  height="2"/>
    <rect x="22" y="8" width="2"  height="2"/>
    <rect x="28" y="8" width="6"  height="2"/>
    <rect x="38" y="8" width="2"  height="2"/>
    <rect x="44" y="8" width="4"  height="2"/>
    <rect x="52" y="8" width="2"  height="2"/>
    <rect x="58" y="8" width="4"  height="2"/>
  </g>
  <g fill="#7A3F18">
    <rect x="4"  y="14" width="2" height="2"/>
    <rect x="20" y="18" width="2" height="2"/>
    <rect x="36" y="14" width="2" height="2"/>
    <rect x="48" y="22" width="2" height="2"/>
    <rect x="58" y="16" width="2" height="2"/>
  </g>
</svg>
