<svg xmlns="http://www.w3.org/2000/svg" viewBox="0 0 512 96" shape-rendering="crispEdges" preserveAspectRatio="xMidYMax slice">
  <g fill="#007800">
    <rect x="0"   y="56" width="80"  height="40"/>
    <rect x="8"   y="48" width="64"  height="8"/>
    <rect x="16"  y="40" width="48"  height="8"/>
    <rect x="24"  y="32" width="32"  height="8"/>
    <rect x="180" y="64" width="120" height="32"/>
    <rect x="188" y="56" width="104" height="8"/>
    <rect x="200" y="48" width="80"  height="8"/>
    <rect x="216" y="40" width="48"  height="8"/>
    <rect x="380" y="60" width="100" height="36"/>
    <rect x="388" y="52" width="84"  height="8"/>
    <rect x="400" y="44" width="60"  height="8"/>
    <rect x="412" y="36" width="36"  height="8"/>
  </g>
  <g fill="#00A800">
    <rect x="90"  y="68" width="100" height="28"/>
    <rect x="98"  y="60" width="84"  height="8"/>
    <rect x="110" y="52" width="60"  height="8"/>
    <rect x="280" y="72" width="120" height="24"/>
    <rect x="290" y="64" width="100" height="8"/>
    <rect x="304" y="56" width="76"  height="8"/>
    <rect x="450" y="68" width="62"  height="28"/>
    <rect x="458" y="60" width="46"  height="8"/>
  </g>
</svg>
