<svg xmlns="http://www.w3.org/2000/svg" viewBox="0 0 16 16" shape-rendering="crispEdges">
  <g fill="#FCBC3C">
    <rect x="1" y="9" width="6" height="6"/>
    <rect x="9" y="9" width="6" height="6"/>
    <rect x="5" y="1" width="6" height="6"/>
  </g>
  <g fill="#A07020">
    <rect x="1" y="14" width="6" height="1"/>
    <rect x="9" y="14" width="6" height="1"/>
    <rect x="5" y="6" width="6" height="1"/>
  </g>
  <g fill="#FFE060">
    <rect x="1" y="9" width="6" height="1"/>
    <rect x="9" y="9" width="6" height="1"/>
    <rect x="5" y="1" width="6" height="1"/>
  </g>
  <g fill="#000">
    <rect x="0" y="9" width="8" height="1"/>
    <rect x="8" y="9" width="8" height="1"/>
    <rect x="4" y="1" width="8" height="1"/>
    <rect x="0" y="15" width="8" height="1"/>
    <rect x="8" y="15" width="8" height="1"/>
    <rect x="4" y="7" width="8" height="1"/>
    <rect x="0" y="9" width="1" height="6"/>
    <rect x="7" y="9" width="1" height="6"/>
    <rect x="8" y="9" width="1" height="6"/>
    <rect x="15" y="9" width="1" height="6"/>
    <rect x="4" y="1" width="1" height="6"/>
    <rect x="11" y="1" width="1" height="6"/>
  </g>
</svg>
