<svg xmlns="http://www.w3.org/2000/svg" viewBox="0 0 256 144" shape-rendering="crispEdges" preserveAspectRatio="xMidYMid slice">
  <rect width="256" height="144" fill="#5C94FC"/>
  <g fill="#FFFCFC">
    <rect x="16"  y="20" width="32" height="8"/>
    <rect x="24"  y="12" width="16" height="8"/>
    <rect x="8"   y="28" width="48" height="8"/>
    <rect x="80"  y="48" width="40" height="8"/>
    <rect x="88"  y="40" width="24" height="8"/>
    <rect x="72"  y="56" width="56" height="8"/>
    <rect x="160" y="16" width="32" height="8"/>
    <rect x="168" y="8"  width="16" height="8"/>
    <rect x="152" y="24" width="48" height="8"/>
    <rect x="208" y="60" width="32" height="8"/>
    <rect x="216" y="52" width="16" height="8"/>
    <rect x="200" y="68" width="48" height="8"/>
    <rect x="40"  y="88" width="40" height="8"/>
    <rect x="48"  y="80" width="24" height="8"/>
    <rect x="32"  y="96" width="56" height="8"/>
    <rect x="128" y="100" width="32" height="8"/>
    <rect x="136" y="92"  width="16" height="8"/>
    <rect x="120" y="108" width="48" height="8"/>
  </g>
</svg>
